<svg xmlns="http://www.w3.org/2000/svg" version="1.1" xmlns:xlink="http://www.w3.org/1999/xlink" xmlns:svgjs="http://svgjs.dev/svgjs" width="1500" height="1500" viewBox="0 0 1500 1500"><rect width="1500" height="1500" fill="#ffffff"></rect><g transform="matrix(0.6666666666666666,0,0,0.6666666666666666,251.14084507042253,170.80269905533078)"><svg viewBox="0 0 213 247" data-background-color="#ffffff" preserveAspectRatio="xMidYMid meet" height="1739" width="1500" xmlns="http://www.w3.org/2000/svg" xmlns:xlink="http://www.w3.org/1999/xlink"><g id="tight-bounds" transform="matrix(1,0,0,1,-0.242999999999995,-0.09999999999999432)"><svg viewBox="0 0 213.48560018050216 247.2" height="247.2" width="213.48560018050216"><g><svg></svg></g><g><svg viewBox="0 0 213.48560018050216 247.2" height="247.2" width="213.48560018050216"><g transform="matrix(1,0,0,1,0,47.215199999999996)"><svg viewBox="0 0 213.48560018050216 152.7696" height="152.7696" width="213.48560018050216"><g><svg viewBox="0 0 244.43135999999998 174.91428491234814" height="152.7696" width="213.48560018050216"><g transform="matrix(1,0,0,1,0,128.40519763660916)"><svg viewBox="0 0 244.43135999999998 46.509087275738985" height="46.509087275738985" width="244.43135999999998"><g id="textblocktransform"><svg viewBox="0 0 244.43135999999998 46.509087275738985" height="46.509087275738985" width="244.43135999999998" id="textblock"><g><svg viewBox="0 0 244.43135999999998 29.407706177491324" height="29.407706177491324" width="244.43135999999998"><g transform="matrix(1,0,0,1,0,0)"><svg width="244.43135999999998" viewBox="6.5 -35.7 302.53 36.400000000000006" height="29.407706177491324" data-palette-color="#255f45"><path d="M9.9 0L6.5 0 6.5-35 9.9-35 9.9 0ZM50.5-4.3L50.8-4.3 50.5-1.25Q49.1-0.65 47.1-0.2 45.1 0.25 43.05 0.48 41 0.7 39.4 0.7L39.4 0.7Q35.35 0.7 31.9-0.68 28.45-2.05 25.87-4.5 23.3-6.95 21.85-10.28 20.4-13.6 20.4-17.5L20.4-17.5Q20.4-21.4 21.85-24.73 23.3-28.05 25.87-30.5 28.45-32.95 31.9-34.33 35.35-35.7 39.4-35.7L39.4-35.7Q41.05-35.7 43.1-35.45 45.15-35.2 47.1-34.77 49.05-34.35 50.4-33.8L50.4-33.8 50.15-31 49.85-31Q48-32.7 45.2-33.6 42.4-34.5 39.4-34.5L39.4-34.5Q34.9-34.5 31.47-32.38 28.05-30.25 26.12-26.43 24.2-22.6 24.2-17.5L24.2-17.5Q24.2-12.35 26.12-8.55 28.05-4.75 31.45-2.63 34.85-0.5 39.4-0.5L39.4-0.5Q42.8-0.5 45.72-1.6 48.65-2.7 50.5-4.3L50.5-4.3ZM70.3 0.7L55.9-35 59.55-35 71.8-4.4 72.09-4.4 80.09-24.2 75.75-35 79.4-35 91.59-4.5 91.9-4.5 102-35 105.65-35 91.25 0.7 90.15 0.7 80.8-22.55 71.4 0.7 70.3 0.7ZM110.14 0L106.49 0 119.94-35 123.04-35 136.49 0 132.84 0 126.64-16.4 115.29-16.4 110.14 0ZM120.59-32.4L120.29-32.4 115.64-17.6 126.19-17.6 120.59-32.4ZM141.54-1.1L141.54-1.1 141.84-4.1 142.14-4.1Q144.09-2.4 146.54-1.45 148.99-0.5 151.39-0.5L151.39-0.5Q154.79-0.5 156.89-2.38 158.99-4.25 158.99-7.4L158.99-7.4Q158.99-9.15 158.22-10.65 157.44-12.15 155.66-13.7 153.89-15.25 150.79-17.05L150.79-17.05Q148.64-18.3 146.69-19.68 144.74-21.05 143.49-22.88 142.24-24.7 142.24-27.25L142.24-27.25Q142.24-31.05 144.99-33.38 147.74-35.7 152.24-35.7L152.24-35.7Q154.24-35.7 156.54-35.27 158.84-34.85 160.09-34.2L160.09-34.2 159.84-31.4 159.54-31.4Q156.69-34.5 152.24-34.5L152.24-34.5Q149.04-34.5 147.09-32.88 145.14-31.25 145.14-28.5L145.14-28.5Q145.14-26.45 146.22-24.98 147.29-23.5 148.99-22.33 150.69-21.15 152.64-20.05L152.64-20.05Q154.89-18.75 157.02-17.3 159.14-15.85 160.52-13.83 161.89-11.8 161.89-8.75L161.89-8.75Q161.89-5.95 160.59-3.83 159.29-1.7 156.91-0.5 154.54 0.7 151.39 0.7L151.39 0.7Q149.39 0.7 146.69 0.2 143.99-0.3 141.54-1.1ZM182.14 0L178.74 0 178.74-34Q177.99-34 175.64-33.7L175.64-33.7 165.84-32.45 165.84-35 195.04-35 195.04-32.45 185.24-33.7Q182.89-34 182.14-34L182.14-34 182.14 0ZM218.54 0L203.14 0 203.14-35 218.39-35 218.39-32.55 209.64-33.7Q207.34-34 206.54-34L206.54-34 206.54-18.75Q207.19-18.75 209.64-18.9L209.64-18.9 217.84-19.4 217.84-17.1 209.64-17.6Q207.19-17.75 206.54-17.75L206.54-17.75 206.54-1Q207.44-1 209.69-1.3L209.69-1.3 218.54-2.45 218.54 0ZM226.53-2.1L226.53-2.1Q226.53-3.25 227.28-3.98 228.03-4.7 229.13-4.7L229.13-4.7Q230.28-4.7 231.01-3.98 231.73-3.25 231.73-2.1L231.73-2.1Q231.73-1 231.01-0.25 230.28 0.5 229.13 0.5L229.13 0.5Q228.03 0.5 227.28-0.25 226.53-1 226.53-2.1ZM253.23 0L242.23 0 242.23-35 253.23-35Q259.03-35 263.33-32.8 267.63-30.6 270.03-26.68 272.43-22.75 272.43-17.5L272.43-17.5Q272.43-12.25 270.03-8.33 267.63-4.4 263.33-2.2 259.03 0 253.23 0L253.23 0ZM253.23-33.8L253.23-33.8 245.63-33.8 245.63-1.2 253.23-1.2Q260.48-1.2 264.56-5.5 268.63-9.8 268.63-17.5L268.63-17.5Q268.63-25.2 264.56-29.5 260.48-33.8 253.23-33.8ZM309.03 0L304.53 0 288.13-17.95 303.33-35 307.63-35 291.18-19.35 309.03 0ZM286.33 0L282.93 0 282.93-35 286.33-35 286.33 0Z" opacity="1" transform="matrix(1,0,0,1,0,0)" fill="#000000" class="wordmark-text-0" data-fill-palette-color="primary" id="text-0"></path></svg></g></svg></g><g transform="matrix(1,0,0,1,46.68638976,36.35015982104876)"><svg viewBox="0 0 151.05858048 10.158927454690218" height="10.158927454690218" width="151.05858048"><g transform="matrix(1,0,0,1,0,0)"><svg width="151.05858048" viewBox="0 -33.84 631.6 42.480000000000004" height="10.158927454690218" data-palette-color="#5ebc67"><path d="M14.16 0L10.13 0 10.13-13.18 0-33.84 4.22-33.84 8.74-24.1Q9.57-22.24 10.36-20.43 11.16-18.63 12.04-16.75L12.04-16.75 12.26-16.75Q13.13-18.63 14.01-20.43 14.89-22.24 15.7-24.1L15.7-24.1 20.14-33.84 24.32-33.84 14.16-13.18 14.16 0ZM38.16 0.61L38.16 0.61Q35.13 0.61 32.5-0.93 29.88-2.47 28.28-5.38 26.68-8.3 26.68-12.45L26.68-12.45Q26.68-16.63 28.28-19.57 29.88-22.51 32.5-24.06 35.13-25.61 38.16-25.61L38.16-25.61Q41.23-25.61 43.87-24.06 46.51-22.51 48.11-19.57 49.7-16.63 49.7-12.45L49.7-12.45Q49.7-8.3 48.11-5.38 46.51-2.47 43.87-0.93 41.23 0.61 38.16 0.61ZM38.16-2.66L38.16-2.66Q41.5-2.66 43.58-5.36 45.65-8.06 45.65-12.45L45.65-12.45Q45.65-16.87 43.58-19.59 41.5-22.31 38.16-22.31L38.16-22.31Q35.98-22.31 34.3-21.07 32.61-19.82 31.67-17.61 30.73-15.41 30.73-12.45L30.73-12.45Q30.73-8.06 32.81-5.36 34.89-2.66 38.16-2.66ZM63.72 0.61L63.72 0.61Q59.79 0.61 57.94-1.86 56.1-4.32 56.1-9.11L56.1-9.11 56.1-24.98 60-24.98 60-9.62Q60-6.08 61.16-4.46 62.32-2.83 64.91-2.83L64.91-2.83Q66.87-2.83 68.42-3.85 69.97-4.86 71.82-7.15L71.82-7.15 71.82-24.98 75.73-24.98 75.73 0 72.48 0 72.14-3.96 71.97-3.96Q70.23-1.9 68.26-0.65 66.28 0.61 63.72 0.61ZM106.95 0.61L106.95 0.61Q104.16 0.61 101.77-0.33 99.38-1.27 97.67-2.93L97.67-2.93 99.53-5.25Q101.11-3.93 102.91-3.2 104.7-2.47 107.09-2.47L107.09-2.47Q109.61-2.47 110.88-3.67 112.15-4.88 112.15-6.54L112.15-6.54Q112.15-7.86 111.32-8.73 110.49-9.59 109.18-10.21 107.88-10.82 106.44-11.33L106.44-11.33Q104.58-12.01 102.9-12.92 101.21-13.82 100.14-15.19 99.06-16.55 99.06-18.6L99.06-18.6Q99.06-21.53 101.28-23.57 103.51-25.61 107.56-25.61L107.56-25.61Q109.88-25.61 111.84-24.82 113.81-24.02 115.25-22.83L115.25-22.83 113.44-20.51Q112.12-21.46 110.72-21.98 109.32-22.51 107.61-22.51L107.61-22.51Q105.14-22.51 104.01-21.37 102.87-20.24 102.87-18.8L102.87-18.8Q102.87-17.02 104.38-16.11 105.9-15.21 108.17-14.36L108.17-14.36Q110.15-13.67 111.93-12.78 113.71-11.89 114.83-10.47 115.96-9.06 115.96-6.74L115.96-6.74Q115.96-3.71 113.64-1.55 111.32 0.61 106.95 0.61ZM131.97 0.61L131.97 0.61Q128.67 0.61 125.98-0.95 123.28-2.51 121.68-5.44 120.08-8.37 120.08-12.45L120.08-12.45Q120.08-16.53 121.68-19.48 123.28-22.44 125.84-24.02 128.41-25.61 131.26-25.61L131.26-25.61Q135.97-25.61 138.56-22.46 141.15-19.31 141.15-13.89L141.15-13.89Q141.15-12.52 141-11.57L141-11.57 123.99-11.57Q124.18-7.5 126.48-5 128.77-2.51 132.43-2.51L132.43-2.51Q134.31-2.51 135.88-3.02 137.44-3.52 138.78-4.42L138.78-4.42 140.17-1.95Q138.54-0.83 136.56-0.11 134.58 0.61 131.97 0.61ZM123.94-14.43L123.94-14.43 137.66-14.43Q137.66-18.36 136-20.41 134.34-22.46 131.31-22.46L131.31-22.46Q128.6-22.46 126.46-20.36 124.33-18.26 123.94-14.43ZM157.41 0.61L157.41 0.61Q154.11 0.61 151.41-0.95 148.72-2.51 147.12-5.44 145.52-8.37 145.52-12.45L145.52-12.45Q145.52-16.53 147.12-19.48 148.72-22.44 151.28-24.02 153.84-25.61 156.7-25.61L156.7-25.61Q161.41-25.61 164-22.46 166.59-19.31 166.59-13.89L166.59-13.89Q166.59-12.52 166.44-11.57L166.44-11.57 149.42-11.57Q149.62-7.5 151.91-5 154.21-2.51 157.87-2.51L157.87-2.51Q159.75-2.51 161.31-3.02 162.88-3.52 164.22-4.42L164.22-4.42 165.61-1.95Q163.97-0.83 162-0.11 160.02 0.61 157.41 0.61ZM149.37-14.43L149.37-14.43 163.1-14.43Q163.1-18.36 161.44-20.41 159.78-22.46 156.75-22.46L156.75-22.46Q154.04-22.46 151.9-20.36 149.77-18.26 149.37-14.43ZM197.51 0L192.88 0 185.87-24.98 189.9-24.98 193.75-10.3Q194.17-8.52 194.54-6.82 194.9-5.13 195.24-3.34L195.24-3.34 195.46-3.34Q195.88-5.13 196.32-6.85 196.76-8.57 197.22-10.3L197.22-10.3 201.13-24.98 205.11-24.98 209.06-10.3Q209.53-8.52 209.97-6.82 210.4-5.13 210.82-3.34L210.82-3.34 211.02-3.34Q211.45-5.13 211.83-6.82 212.21-8.52 212.63-10.3L212.63-10.3 216.39-24.98 220.15-24.98 213.38 0 208.55 0 204.84-13.75Q204.37-15.53 203.97-17.3 203.57-19.07 203.08-20.92L203.08-20.92 202.89-20.92Q202.49-19.07 202.09-17.27 201.69-15.48 201.13-13.7L201.13-13.7 197.51 0ZM231.42 0.61L231.42 0.61Q228.3 0.61 226.2-1.21 224.1-3.03 224.1-6.42L224.1-6.42Q224.1-10.52 227.82-12.72 231.54-14.92 239.58-15.82L239.58-15.82Q239.58-17.48 239.13-18.97 238.67-20.46 237.54-21.41 236.4-22.36 234.3-22.36L234.3-22.36Q232.08-22.36 230.14-21.51 228.2-20.65 226.74-19.73L226.74-19.73 225.2-22.36Q226.86-23.51 229.38-24.56 231.91-25.61 234.94-25.61L234.94-25.61Q239.5-25.61 241.52-22.8 243.53-20 243.53-15.41L243.53-15.41 243.53 0 240.24 0 239.92-3.03 239.77-3.03Q237.97-1.54 235.85-0.46 233.74 0.61 231.42 0.61ZM232.5-2.56L232.5-2.56Q234.38-2.56 236.02-3.44 237.67-4.32 239.58-5.96L239.58-5.96 239.58-13.18Q235.26-12.65 232.72-11.77 230.18-10.89 229.08-9.64 227.98-8.4 227.98-6.74L227.98-6.74Q227.98-4.52 229.3-3.54 230.62-2.56 232.5-2.56ZM258.01 0.61L258.01 0.61Q255.22 0.61 252.83-0.33 250.44-1.27 248.73-2.93L248.73-2.93 250.59-5.25Q252.17-3.93 253.97-3.2 255.76-2.47 258.15-2.47L258.15-2.47Q260.67-2.47 261.94-3.67 263.21-4.88 263.21-6.54L263.21-6.54Q263.21-7.86 262.38-8.73 261.55-9.59 260.24-10.21 258.93-10.82 257.49-11.33L257.49-11.33Q255.64-12.01 253.95-12.92 252.27-13.82 251.2-15.19 250.12-16.55 250.12-18.6L250.12-18.6Q250.12-21.53 252.34-23.57 254.56-25.61 258.62-25.61L258.62-25.61Q260.94-25.61 262.9-24.82 264.87-24.02 266.31-22.83L266.31-22.83 264.5-20.51Q263.18-21.46 261.78-21.98 260.38-22.51 258.67-22.51L258.67-22.51Q256.2-22.51 255.07-21.37 253.93-20.24 253.93-18.8L253.93-18.8Q253.93-17.02 255.44-16.11 256.96-15.21 259.23-14.36L259.23-14.36Q261.21-13.67 262.99-12.78 264.77-11.89 265.89-10.47 267.02-9.06 267.02-6.74L267.02-6.74Q267.02-3.71 264.7-1.55 262.38 0.61 258.01 0.61ZM280.71 0.61L280.71 0.61Q276.78 0.61 275.24-1.66 273.7-3.93 273.7-7.62L273.7-7.62 273.7-21.73 269.99-21.73 269.99-24.78 273.92-24.98 274.39-33.08 277.68-33.08 277.68-24.98 284.54-24.98 284.54-21.73 277.68-21.73 277.68-7.52Q277.68-5.2 278.54-3.91 279.39-2.61 281.59-2.61L281.59-2.61Q282.25-2.61 282.98-2.75 283.71-2.88 284.47-3.22L284.47-3.22 285.35-0.44Q284.35 0 283.15 0.31 281.95 0.61 280.71 0.61ZM300.24 0.61L300.24 0.61Q296.94 0.61 294.24-0.95 291.55-2.51 289.95-5.44 288.35-8.37 288.35-12.45L288.35-12.45Q288.35-16.53 289.95-19.48 291.55-22.44 294.11-24.02 296.67-25.61 299.53-25.61L299.53-25.61Q304.24-25.61 306.83-22.46 309.42-19.31 309.42-13.89L309.42-13.89Q309.42-12.52 309.27-11.57L309.27-11.57 292.26-11.57Q292.45-7.5 294.75-5 297.04-2.51 300.7-2.51L300.7-2.51Q302.58-2.51 304.14-3.02 305.71-3.52 307.05-4.42L307.05-4.42 308.44-1.95Q306.81-0.83 304.83-0.11 302.85 0.61 300.24 0.61ZM292.21-14.43L292.21-14.43 305.93-14.43Q305.93-18.36 304.27-20.41 302.61-22.46 299.58-22.46L299.58-22.46Q296.87-22.46 294.73-20.36 292.6-18.26 292.21-14.43ZM314.81 8.64L314.81 8.64 313.79 6.27Q315.91 5.3 317.13 3.65 318.35 2 318.3-0.1L318.3-0.1 317.84-3.81 319.91-0.81Q319.5-0.27 318.94-0.11 318.38 0.05 317.79 0.05L317.79 0.05Q316.64 0.05 315.75-0.66 314.86-1.37 314.86-2.76L314.86-2.76Q314.86-4.08 315.75-4.85 316.64-5.62 317.84-5.62L317.84-5.62Q319.47-5.62 320.39-4.32 321.31-3.03 321.31-0.81L321.31-0.81Q321.31 2.44 319.55 4.88 317.79 7.32 314.81 8.64ZM352.94 0L348.3 0 341.3-24.98 345.32-24.98 349.18-10.3Q349.6-8.52 349.96-6.82 350.33-5.13 350.67-3.34L350.67-3.34 350.89-3.34Q351.31-5.13 351.74-6.85 352.18-8.57 352.65-10.3L352.65-10.3 356.55-24.98 360.53-24.98 364.49-10.3Q364.95-8.52 365.39-6.82 365.83-5.13 366.25-3.34L366.25-3.34 366.44-3.34Q366.88-5.13 367.26-6.82 367.64-8.52 368.05-10.3L368.05-10.3 371.81-24.98 375.57-24.98 368.81 0 363.98 0 360.27-13.75Q359.8-15.53 359.4-17.3 359-19.07 358.51-20.92L358.51-20.92 358.31-20.92Q357.92-19.07 357.52-17.27 357.12-15.48 356.55-13.7L356.55-13.7 352.94 0ZM391.12 0.61L391.12 0.61Q387.83 0.61 385.13-0.95 382.43-2.51 380.83-5.44 379.23-8.37 379.23-12.45L379.23-12.45Q379.23-16.53 380.83-19.48 382.43-22.44 384.99-24.02 387.56-25.61 390.41-25.61L390.41-25.61Q395.13-25.61 397.71-22.46 400.3-19.31 400.3-13.89L400.3-13.89Q400.3-12.52 400.16-11.57L400.16-11.57 383.14-11.57Q383.33-7.5 385.63-5 387.92-2.51 391.59-2.51L391.59-2.51Q393.47-2.51 395.03-3.02 396.59-3.52 397.93-4.42L397.93-4.42 399.33-1.95Q397.69-0.83 395.71-0.11 393.73 0.61 391.12 0.61ZM383.09-14.43L383.09-14.43 396.81-14.43Q396.81-18.36 395.15-20.41 393.49-22.46 390.46-22.46L390.46-22.46Q387.75-22.46 385.62-20.36 383.48-18.26 383.09-14.43ZM429.13 0.61L429.13 0.61Q426.35 0.61 423.95-0.33 421.56-1.27 419.85-2.93L419.85-2.93 421.71-5.25Q423.29-3.93 425.09-3.2 426.88-2.47 429.28-2.47L429.28-2.47Q431.79-2.47 433.06-3.67 434.33-4.88 434.33-6.54L434.33-6.54Q434.33-7.86 433.5-8.73 432.67-9.59 431.36-10.21 430.06-10.82 428.62-11.33L428.62-11.33Q426.76-12.01 425.08-12.92 423.39-13.82 422.32-15.19 421.24-16.55 421.24-18.6L421.24-18.6Q421.24-21.53 423.47-23.57 425.69-25.61 429.74-25.61L429.74-25.61Q432.06-25.61 434.02-24.82 435.99-24.02 437.43-22.83L437.43-22.83 435.62-20.51Q434.31-21.46 432.9-21.98 431.5-22.51 429.79-22.51L429.79-22.51Q427.32-22.51 426.19-21.37 425.05-20.24 425.05-18.8L425.05-18.8Q425.05-17.02 426.57-16.11 428.08-15.21 430.35-14.36L430.35-14.36Q432.33-13.67 434.11-12.78 435.89-11.89 437.02-10.47 438.14-9.06 438.14-6.74L438.14-6.74Q438.14-3.71 435.82-1.55 433.5 0.61 429.13 0.61ZM454.15 0.61L454.15 0.61Q450.86 0.61 448.16-0.95 445.46-2.51 443.86-5.44 442.26-8.37 442.26-12.45L442.26-12.45Q442.26-16.53 443.86-19.48 445.46-22.44 448.02-24.02 450.59-25.61 453.44-25.61L453.44-25.61Q458.16-25.61 460.74-22.46 463.33-19.31 463.33-13.89L463.33-13.89Q463.33-12.52 463.18-11.57L463.18-11.57 446.17-11.57Q446.36-7.5 448.66-5 450.95-2.51 454.62-2.51L454.62-2.51Q456.5-2.51 458.06-3.02 459.62-3.52 460.96-4.42L460.96-4.42 462.35-1.95Q460.72-0.83 458.74-0.11 456.76 0.61 454.15 0.61ZM446.12-14.43L446.12-14.43 459.84-14.43Q459.84-18.36 458.18-20.41 456.52-22.46 453.49-22.46L453.49-22.46Q450.78-22.46 448.65-20.36 446.51-18.26 446.12-14.43ZM479.59 0.61L479.59 0.61Q476.29 0.61 473.6-0.95 470.9-2.51 469.3-5.44 467.7-8.37 467.7-12.45L467.7-12.45Q467.7-16.53 469.3-19.48 470.9-22.44 473.46-24.02 476.02-25.61 478.88-25.61L478.88-25.61Q483.59-25.61 486.18-22.46 488.77-19.31 488.77-13.89L488.77-13.89Q488.77-12.52 488.62-11.57L488.62-11.57 471.61-11.57Q471.8-7.5 474.1-5 476.39-2.51 480.05-2.51L480.05-2.51Q481.93-2.51 483.49-3.02 485.06-3.52 486.4-4.42L486.4-4.42 487.79-1.95Q486.16-0.83 484.18-0.11 482.2 0.61 479.59 0.61ZM471.56-14.43L471.56-14.43 485.28-14.43Q485.28-18.36 483.62-20.41 481.96-22.46 478.93-22.46L478.93-22.46Q476.22-22.46 474.08-20.36 471.95-18.26 471.56-14.43ZM519.7 0L515.06 0 508.05-24.98 512.08-24.98 515.94-10.3Q516.35-8.52 516.72-6.82 517.08-5.13 517.43-3.34L517.43-3.34 517.65-3.34Q518.06-5.13 518.5-6.85 518.94-8.57 519.4-10.3L519.4-10.3 523.31-24.98 527.29-24.98 531.24-10.3Q531.71-8.52 532.15-6.82 532.59-5.13 533-3.34L533-3.34 533.2-3.34Q533.64-5.13 534.01-6.82 534.39-8.52 534.81-10.3L534.81-10.3 538.57-24.98 542.33-24.98 535.57 0 530.73 0 527.02-13.75Q526.56-15.53 526.15-17.3 525.75-19.07 525.26-20.92L525.26-20.92 525.07-20.92Q524.68-19.07 524.27-17.27 523.87-15.48 523.31-13.7L523.31-13.7 519.7 0ZM553.6 0.61L553.6 0.61Q550.48 0.61 548.38-1.21 546.28-3.03 546.28-6.42L546.28-6.42Q546.28-10.52 550-12.72 553.73-14.92 561.76-15.82L561.76-15.82Q561.76-17.48 561.31-18.97 560.86-20.46 559.72-21.41 558.59-22.36 556.49-22.36L556.49-22.36Q554.26-22.36 552.32-21.51 550.38-20.65 548.92-19.73L548.92-19.73 547.38-22.36Q549.04-23.51 551.57-24.56 554.09-25.61 557.12-25.61L557.12-25.61Q561.69-25.61 563.7-22.8 565.71-20 565.71-15.41L565.71-15.41 565.71 0 562.42 0 562.1-3.03 561.95-3.03Q560.15-1.54 558.04-0.46 555.92 0.61 553.6 0.61ZM554.68-2.56L554.68-2.56Q556.56-2.56 558.21-3.44 559.85-4.32 561.76-5.96L561.76-5.96 561.76-13.18Q557.44-12.65 554.9-11.77 552.36-10.89 551.26-9.64 550.16-8.4 550.16-6.74L550.16-6.74Q550.16-4.52 551.48-3.54 552.8-2.56 554.68-2.56ZM580.19 0.61L580.19 0.61Q577.41 0.61 575.01-0.33 572.62-1.27 570.91-2.93L570.91-2.93 572.77-5.25Q574.35-3.93 576.15-3.2 577.94-2.47 580.34-2.47L580.34-2.47Q582.85-2.47 584.12-3.67 585.39-4.88 585.39-6.54L585.39-6.54Q585.39-7.86 584.56-8.73 583.73-9.59 582.42-10.21 581.12-10.82 579.68-11.33L579.68-11.33Q577.82-12.01 576.14-12.92 574.45-13.82 573.38-15.19 572.3-16.55 572.3-18.6L572.3-18.6Q572.3-21.53 574.52-23.57 576.75-25.61 580.8-25.61L580.8-25.61Q583.12-25.61 585.08-24.82 587.05-24.02 588.49-22.83L588.49-22.83 586.68-20.51Q585.36-21.46 583.96-21.98 582.56-22.51 580.85-22.51L580.85-22.51Q578.38-22.51 577.25-21.37 576.11-20.24 576.11-18.8L576.11-18.8Q576.11-17.02 577.63-16.11 579.14-15.21 581.41-14.36L581.41-14.36Q583.39-13.67 585.17-12.78 586.95-11.89 588.07-10.47 589.2-9.06 589.2-6.74L589.2-6.74Q589.2-3.71 586.88-1.55 584.56 0.61 580.19 0.61ZM602.89 0.61L602.89 0.61Q598.96 0.61 597.42-1.66 595.88-3.93 595.88-7.62L595.88-7.62 595.88-21.73 592.17-21.73 592.17-24.78 596.1-24.98 596.57-33.08 599.86-33.08 599.86-24.98 606.72-24.98 606.72-21.73 599.86-21.73 599.86-7.52Q599.86-5.2 600.72-3.91 601.57-2.61 603.77-2.61L603.77-2.61Q604.43-2.61 605.16-2.75 605.89-2.88 606.65-3.22L606.65-3.22 607.53-0.44Q606.53 0 605.33 0.31 604.14 0.61 602.89 0.61ZM622.42 0.61L622.42 0.61Q619.12 0.61 616.43-0.95 613.73-2.51 612.13-5.44 610.53-8.37 610.53-12.45L610.53-12.45Q610.53-16.53 612.13-19.48 613.73-22.44 616.29-24.02 618.86-25.61 621.71-25.61L621.71-25.61Q626.42-25.61 629.01-22.46 631.6-19.31 631.6-13.89L631.6-13.89Q631.6-12.52 631.45-11.57L631.45-11.57 614.44-11.57Q614.63-7.5 616.93-5 619.22-2.51 622.88-2.51L622.88-2.51Q624.76-2.51 626.33-3.02 627.89-3.52 629.23-4.42L629.23-4.42 630.62-1.95Q628.99-0.83 627.01-0.11 625.03 0.61 622.42 0.61ZM614.39-14.43L614.39-14.43 628.11-14.43Q628.11-18.36 626.45-20.41 624.79-22.46 621.76-22.46L621.76-22.46Q619.05-22.46 616.91-20.36 614.78-18.26 614.39-14.43Z" opacity="1" transform="matrix(1,0,0,1,0,0)" fill="#000000" class="slogan-text-1" data-fill-palette-color="secondary" id="text-1"></path></svg></g></svg></g></svg></g></svg></g><g transform="matrix(1,0,0,1,64.95553482525285,0)"><svg viewBox="0 0 114.52029034949427 114.52029034949427" height="114.52029034949427" width="114.52029034949427"><g><svg></svg></g><g id="icon-0"><svg viewBox="0 0 114.52029034949427 114.52029034949427" height="114.52029034949427" width="114.52029034949427"><g><path d="M0 57.26c0-31.624 25.636-57.26 57.26-57.26 31.624 0 57.26 25.636 57.26 57.26 0 31.624-25.636 57.26-57.26 57.26-31.624 0-57.26-25.636-57.26-57.26zM57.26 111.868c30.159 0 54.608-24.449 54.608-54.608 0-30.159-24.449-54.608-54.608-54.608-30.159 0-54.608 24.449-54.608 54.608 0 30.159 24.449 54.608 54.608 54.608z" data-fill-palette-color="accent" fill="#000000" stroke="transparent"></path><ellipse rx="56.68754372299966" ry="56.68754372299966" cx="57.26014517474714" cy="57.26014517474714" fill="#000000" stroke="transparent" stroke-width="0" fill-opacity="1" data-fill-palette-color="accent"></ellipse></g><g transform="matrix(1,0,0,1,22.951261672671457,35.39353404010542)"><svg viewBox="0 0 68.61776700415136 43.733222269283424" height="43.733222269283424" width="68.61776700415136"><g><svg xmlns="http://www.w3.org/2000/svg" xmlns:xlink="http://www.w3.org/1999/xlink" version="1.1" x="0" y="0" viewBox="0.19339758093974932 17.624210193134896 90.61225314182656 57.751308152192266" enable-background="new 0 0 91 91" xml:space="preserve" height="43.733222269283424" width="68.61776700415136" class="icon-cg-0" data-fill-palette-color="quaternary" id="cg-0"><g fill="#ffffff" data-fill-palette-color="quaternary"><g fill="#ffffff" data-fill-palette-color="quaternary"><g fill="#ffffff" data-fill-palette-color="quaternary"><path d="M13.366 63.769c9.158 7.424 19.506 11.699 32.48 11.605 5.861 0.041 12.537-1.02 18.65-4.314 9.172-4.943 17.607-10.859 24.268-19.037 2.678-3.287 2.791-7.512-0.074-10.598-6.277-6.752-13.379-12.551-21.271-17.291-14.266-8.568-28.791-8.535-43.377-0.746-6.063 3.24-11.438 7.477-16.885 11.639-3.398 3.641-5.078 6.256-6.463 9.307-0.424 0.938-0.635 1.988-0.408 2.992 0.785 3.473 1.959 5.418 4.762 9.201C7.233 59.474 10.509 61.452 13.366 63.769zM42.729 28.642c11.229-0.822 20.053 6.811 20.846 18.025 0.695 9.85-7.471 18.959-17.617 19.645-10.342 0.697-19.418-7.221-20.162-17.598C25.079 38.7 32.962 29.356 42.729 28.642z" fill="#ffffff" data-fill-palette-color="quaternary"></path><path d="M44.837 56.218c5.004 0.055 8.883-3.732 8.918-8.699 0.033-4.873-3.754-8.756-8.631-8.85-4.908-0.094-8.889 3.803-8.914 8.732C36.181 52.29 39.974 56.167 44.837 56.218z" fill="#ffffff" data-fill-palette-color="quaternary"></path></g></g></g></svg></g></svg></g></svg></g></svg></g><g></g></svg></g></svg></g><path d="M0 41.215L0 1 213.486 1 213.486 41.215 211.169 41.215 211.169 3.316 2.316 3.316 2.316 41.215 0 41.215M0 205.985L0 246.2 213.486 246.2 213.486 205.985 211.169 205.985 211.169 243.884 2.316 243.884 2.316 205.985 0 205.985" fill="#000000" stroke="transparent" data-fill-palette-color="tertiary"></path></svg></g><defs></defs></svg><rect width="213.48560018050216" height="247.2" fill="none" stroke="none" visibility="hidden"></rect></g></svg></g></svg>